<svg width="200" height="45" viewBox="0 0 200 45" fill="none" xmlns="http://www.w3.org/2000/svg">
<rect width="200" height="45" rx="6" fill="#00DE5A"/>
<path d="M102.05 22.8999L101.04 21.2198C103.85 20.8298 106.29 19.2699 106.84 17.0099H101.8V15.2899H109.14C109.12 19.7599 105.56 22.1599 102.05 22.8999ZM103.71 30.2799V26.0399H112V24.9398H103.62V23.2998H114.05V27.5399H105.79V28.6199H114.54V30.2799H103.71ZM112 22.5199V21.1798H109.05V19.6199H112V18.2899H109.33V16.7299H112V14.6299H114.05V22.5199H112Z" fill="black"/>
<path d="M122.94 26.7399C121.91 26.0899 120.59 24.4798 120.2 23.0798C119.83 24.5498 118.49 26.3698 117.21 27.0898L115.95 25.6898C118.2 24.1998 119.2 21.9599 119.2 18.8499V18.0898H116.55V16.4398H123.66V18.0898H121.2V18.8098C121.2 21.8898 122.23 24.1299 124.1 25.2499L122.94 26.7399ZM124.67 29.6599V21.7499H122.62V20.0498H124.67V14.9199H126.6V29.6499H124.67V29.6599ZM127.8 30.3899V14.6299H129.76V30.3899H127.8Z" fill="black"/>
<path d="M131.57 20.0201V18.3701H140.71V20.0201H131.57ZM136.15 20.5701C138.41 20.5701 139.95 21.9901 139.95 23.9701C139.95 25.9001 138.41 27.3701 136.15 27.3701C133.89 27.3701 132.35 25.9701 132.35 23.9701C132.35 22.0401 133.89 20.5701 136.15 20.5701ZM133.781 15.6501H138.64V17.2802H133.781V15.6501ZM136.15 25.6801C137.3 25.6801 137.94 24.9901 137.94 23.9601C137.94 22.9201 137.18 22.2301 136.15 22.2301C135.12 22.2301 134.36 22.9201 134.36 23.9601C134.37 24.9901 135.11 25.6801 136.15 25.6801ZM143.97 21.0101H146.16V22.7201H143.97V30.3801H141.88V14.6201H143.97V21.0101Z" fill="black"/>
<path d="M148.09 27.5399L146.82 25.9799C150.27 24.4099 152.62 21.1199 152.9 17.9899H147.771V16.2699H155.13C155.01 21.0299 152.9 24.9199 148.09 27.5399ZM157.91 30.3899V14.6299H159.98V30.3899H157.91Z" fill="black"/>
<path d="M92.3799 17.4702L89.6899 23.6002L86.6499 17.4702H84.3098L88.6199 25.9802L86.8398 29.9502H89.1099L94.6499 17.4702H92.3799ZM83.01 26.9502H80.78V26.0602C79.98 26.7502 79.0099 27.1403 77.8499 27.1403C75.1899 27.1403 73.0999 24.9702 73.0999 22.2102C73.0999 19.4402 75.1799 17.2803 77.8499 17.2803C79.0099 17.2803 79.97 17.6602 80.78 18.3602V17.4702H83.01V26.9502ZM81.04 22.2102C81.04 20.4202 79.7899 19.0702 78.1399 19.0702C76.4899 19.0702 75.24 20.4302 75.24 22.2102C75.24 24.0002 76.4899 25.3502 78.1399 25.3502C79.7999 25.3502 81.04 24.0002 81.04 22.2102ZM62.0498 29.9502H64.3699V26.1503C65.1499 26.7903 66.09 27.1503 67.2 27.1503C69.86 27.1503 71.95 24.9802 71.95 22.2202C71.95 19.4502 69.87 17.2903 67.2 17.2903C66.04 17.2903 65.08 17.6702 64.27 18.3702V17.4802H62.04V29.9502H62.0498ZM66.9199 19.0702C68.5699 19.0702 69.8198 20.4302 69.8198 22.2102C69.8198 24.0002 68.5699 25.3502 66.9199 25.3502C65.2699 25.3502 64.02 23.9902 64.02 22.2102C64.02 20.4202 65.2599 19.0702 66.9199 19.0702Z" fill="black"/>
<path d="M57.8901 22.5001C57.8901 27.8401 53.5602 32.1801 48.2102 32.1801C42.8702 32.1801 38.5303 27.8501 38.5303 22.5001C38.5303 17.1501 42.8602 12.8301 48.2102 12.8301C53.5602 12.8301 57.8901 17.1601 57.8901 22.5001ZM49.8401 17.9501V22.8201L46.4602 17.9501H43.6702V27.0402H46.6001V22.1702L49.9802 27.0402H52.7703V17.9501H49.8401Z" fill="black"/>
</svg>
